w1r0.ufo
<glyph name="_15" format="2">
	<unicode hex="010F"/>
	<advance width="1"/>
	<outline>
		<component base="cap"/>
		<component base="cap" yOffset="150"/>
		<contour>
			<point x="0" y="0" type="line"/>
			<point x="0" y="150" type="line"/>
			<point x="1" y="150" type="line"/>
			<point x="1" y="0" type="line"/>
		</contour>
	</outline>
</glyph>
<glyph name="_65" format="2">
  <advance width="1"/>
  <unicode hex="0141"/>
  
  <outline>
    <component base="cap" xOffset="0" yOffset="0" />
    <component base="cap" xOffset="0" yOffset="650" />
    <contour>
      <point x="0" y="0" type="line"/>
      <point x="0" y="650" type="line"/>
      <point x="1" y="650" type="line"/>
      <point x="1" y="0" type="line"/>
    </contour>
  </outline>
</glyph>
<glyph name="_78" format="2">
	<unicode hex="014E"/>
	<unicode hex="004E"/>
	<advance width="1"/>
	<outline>
		<component base="cap"/>
		<component base="cap" yOffset="780"/>
		<contour>
			<point x="0" y="0" type="line"/>
			<point x="0" y="780" type="line"/>
			<point x="1" y="780" type="line"/>
			<point x="1" y="0" type="line"/>
		</contour>
	</outline>
</glyph>
<glyph name="_81" format="2">
	<unicode hex="0151"/>
	<advance width="1"/>
	<outline>
		<component base="cap"/>
		<component base="cap" yOffset="810"/>
		<contour>
			<point x="0" y="0" type="line"/>
			<point x="0" y="810" type="line"/>
			<point x="1" y="810" type="line"/>
			<point x="1" y="0" type="line"/>
		</contour>
	</outline>
</glyph>
<glyph name="_83" format="2">
  <advance width="1"/>
  <unicode hex="0153"/>
  
  <outline>
    <component base="cap" xOffset="0" yOffset="0" />
    <component base="cap" xOffset="0" yOffset="830" />
    <contour>
      <point x="0" y="0" type="line"/>
      <point x="0" y="830" type="line"/>
      <point x="1" y="830" type="line"/>
      <point x="1" y="0" type="line"/>
    </contour>
  </outline>
</glyph>
<glyph name="_93" format="2">
  <advance width="1"/>
  <unicode hex="015D"/>
  
  <outline>
    <component base="cap" xOffset="0" yOffset="0" />
    <component base="cap" xOffset="0" yOffset="930" />
    <contour>
      <point x="0" y="0" type="line"/>
      <point x="0" y="930" type="line"/>
      <point x="1" y="930" type="line"/>
      <point x="1" y="0" type="line"/>
    </contour>
  </outline>
</glyph>
<glyph name="_97" format="2">
  <advance width="1"/>
  <unicode hex="0161"/>
  
  <outline>
    <component base="cap" xOffset="0" yOffset="0" />
    <component base="cap" xOffset="0" yOffset="970" />
    <contour>
      <point x="0" y="0" type="line"/>
      <point x="0" y="970" type="line"/>
      <point x="1" y="970" type="line"/>
      <point x="1" y="0" type="line"/>
    </contour>
  </outline>
</glyph>
<glyph name="_1.center" format="2">
	<unicode hex="0401"/>
	<advance width="1"/>
	<outline>
		<component base="cap" yOffset="495"/>
		<component base="cap" yOffset="505"/>
		<contour>
			<point x="0" y="495" type="line"/>
			<point x="0" y="505" type="line"/>
			<point x="1" y="505" type="line"/>
			<point x="1" y="495" type="line"/>
		</contour>
	</outline>
</glyph>
<glyph name="_4.center" format="2">
	<unicode hex="0404"/>
	<advance width="1"/>
	<outline>
		<component base="cap" yOffset="480"/>
		<component base="cap" yOffset="520"/>
		<contour>
			<point x="0" y="480" type="line"/>
			<point x="0" y="520" type="line"/>
			<point x="1" y="520" type="line"/>
			<point x="1" y="480" type="line"/>
		</contour>
	</outline>
</glyph>
<glyph name="_17.center" format="2">
  <advance width="1"/>
  <unicode hex="0411"/>
  
  <outline>
    <component base="cap" xOffset="0" yOffset="415" />
    <component base="cap" xOffset="0" yOffset="585" />
    <contour>
      <point x="0" y="415" type="line"/>
      <point x="0" y="585" type="line"/>
      <point x="1" y="585" type="line"/>
      <point x="1" y="415" type="line"/>
    </contour>
  </outline>
</glyph>
<glyph name="_33.center" format="2">
	<unicode hex="0421"/>
	<advance width="1"/>
	<outline>
		<component base="cap" yOffset="335"/>
		<component base="cap" yOffset="665"/>
		<contour>
			<point x="0" y="335" type="line"/>
			<point x="0" y="665" type="line"/>
			<point x="1" y="665" type="line"/>
			<point x="1" y="335" type="line"/>
		</contour>
	</outline>
</glyph>
<glyph name="_38.center" format="2">
  <advance width="1"/>
  <unicode hex="0426"/>
  
  <outline>
    <component base="cap" xOffset="0" yOffset="310" />
    <component base="cap" xOffset="0" yOffset="690" />
    <contour>
      <point x="0" y="310" type="line"/>
      <point x="0" y="690" type="line"/>
      <point x="1" y="690" type="line"/>
      <point x="1" y="310" type="line"/>
    </contour>
  </outline>
</glyph>
<glyph name="_45.center" format="2">
  <advance width="1"/>
  <unicode hex="042D"/>
  
  <outline>
    <component base="cap" xOffset="0" yOffset="275" />
    <component base="cap" xOffset="0" yOffset="725" />
    <contour>
      <point x="0" y="275" type="line"/>
      <point x="0" y="725" type="line"/>
      <point x="1" y="725" type="line"/>
      <point x="1" y="275" type="line"/>
    </contour>
  </outline>
</glyph>
<glyph name="_50.center" format="2">
	<unicode hex="0432"/>
	<advance width="1"/>
	<outline>
		<component base="cap" yOffset="250"/>
		<component base="cap" yOffset="750"/>
		<contour>
			<point x="0" y="250" type="line"/>
			<point x="0" y="750" type="line"/>
			<point x="1" y="750" type="line"/>
			<point x="1" y="250" type="line"/>
		</contour>
	</outline>
</glyph>
<glyph name="_53.center" format="2">
	<unicode hex="0435"/>
	<advance width="1"/>
	<outline>
		<component base="cap" yOffset="235"/>
		<component base="cap" yOffset="765"/>
		<contour>
			<point x="0" y="235" type="line"/>
			<point x="0" y="765" type="line"/>
			<point x="1" y="765" type="line"/>
			<point x="1" y="235" type="line"/>
		</contour>
	</outline>
</glyph>
<glyph name="_81.center" format="2">
  <advance width="1"/>
  <unicode hex="0451"/>
  
  <outline>
    <component base="cap" xOffset="0" yOffset="95" />
    <component base="cap" xOffset="0" yOffset="905" />
    <contour>
      <point x="0" y="95" type="line"/>
      <point x="0" y="905" type="line"/>
      <point x="1" y="905" type="line"/>
      <point x="1" y="95" type="line"/>
    </contour>
  </outline>
</glyph>
<glyph name="_85.center" format="2">
  <advance width="1"/>
  <unicode hex="0455"/>
  
  <outline>
    <component base="cap" xOffset="0" yOffset="75" />
    <component base="cap" xOffset="0" yOffset="925" />
    <contour>
      <point x="0" y="75" type="line"/>
      <point x="0" y="925" type="line"/>
      <point x="1" y="925" type="line"/>
      <point x="1" y="75" type="line"/>
    </contour>
  </outline>
</glyph>
<glyph name="_89.center" format="2">
	<unicode hex="0459"/>
	<advance width="1"/>
	<outline>
		<component base="cap" yOffset="55"/>
		<component base="cap" yOffset="945"/>
		<contour>
			<point x="0" y="55" type="line"/>
			<point x="0" y="945" type="line"/>
			<point x="1" y="945" type="line"/>
			<point x="1" y="55" type="line"/>
		</contour>
	</outline>
</glyph>
<glyph name="_92.center" format="2">
	<unicode hex="045C"/>
	<advance width="1"/>
	<outline>
		<component base="cap" yOffset="40"/>
		<component base="cap" yOffset="960"/>
		<contour>
			<point x="0" y="40" type="line"/>
			<point x="0" y="960" type="line"/>
			<point x="1" y="960" type="line"/>
			<point x="1" y="40" type="line"/>
		</contour>
	</outline>
</glyph>
<glyph name="_99.center" format="2">
  <advance width="1"/>
  <unicode hex="0463"/>
  
  <outline>
    <component base="cap" xOffset="0" yOffset="5" />
    <component base="cap" xOffset="0" yOffset="995" />
    <contour>
      <point x="0" y="5" type="line"/>
      <point x="0" y="995" type="line"/>
      <point x="1" y="995" type="line"/>
      <point x="1" y="5" type="line"/>
    </contour>
  </outline>
</glyph>
<glyph name="_15.clip.center" format="2">
  <advance width="1"/>
  
  <outline>
    <contour>
        <point x="0.000" y="575.000"/>

        <point x="0.000" y="575.000"/>
        <point x="0.000" y="575.000" type="curve" smooth="yes"/>
        <point x="1.000" y="575.000" type="line"/>
        <point x="1.000" y="575.000"/>

        <point x="1.000" y="575.000"/>
        <point x="1.000" y="575.000" type="curve" smooth="yes"/>
        <point x="1.000" y="425.000" type="line"/>
        <point x="1.000" y="425.000"/>

        <point x="1.000" y="425.000"/>
        <point x="1.000" y="425.000" type="curve" smooth="yes"/>
        <point x="0.000" y="425.000" type="line"/>
        <point x="0.000" y="425.000"/>

        <point x="0.000" y="425.000"/>
        <point x="0.000" y="425.000" type="curve" smooth="yes"/>
        <point x="0.000" y="575.000" type="line"/>
    </contour>
  </outline>
</glyph>
<glyph name="_5.clip.center" format="2">
  <advance width="1"/>
  
  <outline>
    <contour>
        <point x="0.000" y="525.000"/>

        <point x="0.000" y="525.000"/>
        <point x="0.000" y="525.000" type="curve" smooth="yes"/>
        <point x="1.000" y="525.000" type="line"/>
        <point x="1.000" y="525.000"/>

        <point x="1.000" y="525.000"/>
        <point x="1.000" y="525.000" type="curve" smooth="yes"/>
        <point x="1.000" y="475.000" type="line"/>
        <point x="1.000" y="475.000"/>

        <point x="1.000" y="475.000"/>
        <point x="1.000" y="475.000" type="curve" smooth="yes"/>
        <point x="0.000" y="475.000" type="line"/>
        <point x="0.000" y="475.000"/>

        <point x="0.000" y="475.000"/>
        <point x="0.000" y="475.000" type="curve" smooth="yes"/>
        <point x="0.000" y="525.000" type="line"/>
    </contour>
  </outline>
</glyph>
<glyph name="_9.clip.center" format="2">
  <advance width="1"/>
  
  <outline>
    <contour>
        <point x="0.000" y="545.000"/>

        <point x="0.000" y="545.000"/>
        <point x="0.000" y="545.000" type="curve" smooth="yes"/>
        <point x="1.000" y="545.000" type="line"/>
        <point x="1.000" y="545.000"/>

        <point x="1.000" y="545.000"/>
        <point x="1.000" y="545.000" type="curve" smooth="yes"/>
        <point x="1.000" y="455.000" type="line"/>
        <point x="1.000" y="455.000"/>

        <point x="1.000" y="455.000"/>
        <point x="1.000" y="455.000" type="curve" smooth="yes"/>
        <point x="0.000" y="455.000" type="line"/>
        <point x="0.000" y="455.000"/>

        <point x="0.000" y="455.000"/>
        <point x="0.000" y="455.000" type="curve" smooth="yes"/>
        <point x="0.000" y="545.000" type="line"/>
    </contour>
  </outline>
</glyph>
<glyph name="_16.clip.center" format="2">
	<advance width="1"/>
	<outline>
		<contour>
			<point x="0" y="580"/>
			<point x="0" y="580"/>
			<point x="0" y="580" type="curve" smooth="yes"/>
			<point x="1" y="580" type="line"/>
			<point x="1" y="580"/>
			<point x="1" y="580"/>
			<point x="1" y="580" type="curve" smooth="yes"/>
			<point x="1" y="420" type="line"/>
			<point x="1" y="420"/>
			<point x="1" y="420"/>
			<point x="1" y="420" type="curve" smooth="yes"/>
			<point x="0" y="420" type="line"/>
			<point x="0" y="420"/>
			<point x="0" y="420"/>
			<point x="0" y="420" type="curve" smooth="yes"/>
			<point x="0" y="580" type="line"/>
		</contour>
	</outline>
</glyph>
<glyph name="_19.clip.center" format="2">
  <advance width="1"/>
  
  <outline>
    <contour>
        <point x="0" y="595"/>

        <point x="0" y="595"/>
        <point x="0" y="595" type="curve" smooth="yes"/>
        <point x="1" y="595" type="line"/>
        <point x="1" y="595"/>

        <point x="1" y="595"/>
        <point x="1" y="595" type="curve" smooth="yes"/>
        <point x="1" y="405" type="line"/>
        <point x="1" y="405"/>

        <point x="1" y="405"/>
        <point x="1" y="405" type="curve" smooth="yes"/>
        <point x="0" y="405" type="line"/>
        <point x="0" y="405"/>

        <point x="0" y="405"/>
        <point x="0" y="405" type="curve" smooth="yes"/>
        <point x="0" y="595" type="line"/>
    </contour>
  </outline>
</glyph>
<glyph name="_24.clip.center" format="2">
  <advance width="1"/>
  
  <outline>
    <contour>
        <point x="0" y="620"/>

        <point x="0" y="620"/>
        <point x="0" y="620" type="curve" smooth="yes"/>
        <point x="1" y="620" type="line"/>
        <point x="1" y="620"/>

        <point x="1" y="620"/>
        <point x="1" y="620" type="curve" smooth="yes"/>
        <point x="1" y="380" type="line"/>
        <point x="1" y="380"/>

        <point x="1" y="380"/>
        <point x="1" y="380" type="curve" smooth="yes"/>
        <point x="0" y="380" type="line"/>
        <point x="0" y="380"/>

        <point x="0" y="380"/>
        <point x="0" y="380" type="curve" smooth="yes"/>
        <point x="0" y="620" type="line"/>
    </contour>
  </outline>
</glyph>
<glyph name="_36.clip.center" format="2">
	<advance width="1"/>
	<outline>
		<contour>
			<point x="0" y="680"/>
			<point x="0" y="680"/>
			<point x="0" y="680" type="curve" smooth="yes"/>
			<point x="1" y="680" type="line"/>
			<point x="1" y="680"/>
			<point x="1" y="680"/>
			<point x="1" y="680" type="curve" smooth="yes"/>
			<point x="1" y="320" type="line"/>
			<point x="1" y="320"/>
			<point x="1" y="320"/>
			<point x="1" y="320" type="curve" smooth="yes"/>
			<point x="0" y="320" type="line"/>
			<point x="0" y="320"/>
			<point x="0" y="320"/>
			<point x="0" y="320" type="curve" smooth="yes"/>
			<point x="0" y="680" type="line"/>
		</contour>
	</outline>
</glyph>
